<?xml version="1.0" standalone="no"?>
<!DOCTYPE svg PUBLIC "-//W3C//DTD SVG 1.1//EN" "http://www.w3.org/Graphics/SVG/1.1/DTD/svg11.dtd" >
<svg xmlns="http://www.w3.org/2000/svg" xmlns:xlink="http://www.w3.org/1999/xlink" version="1.1">
<metadata></metadata>
<defs>
<font id="icomoon-freeregular" horiz-adv-x="640" >
<font-face units-per-em="1024" ascent="960" descent="-64" />
<missing-glyph horiz-adv-x="512" />
<glyph horiz-adv-x="0" d="M0 0v0v0v0z" />
<glyph horiz-adv-x="0" d="M0 0v0v0v0z" />
<glyph horiz-adv-x="341" />
<glyph horiz-adv-x="0" d="M0 0v0v0v0z" />
<glyph unicode=" " horiz-adv-x="512" d="M0 0v0v0v0z" />
<glyph unicode="!" horiz-adv-x="192" d="M96 128q-13 0 -22.5 9.5t-9.5 22.5v64q0 13 9.5 22.5t22.5 9.5t22.5 -9.5t9.5 -22.5v-64q0 -13 -9.5 -22.5t-22.5 -9.5v0zM96 352q-13 0 -22.5 9.5t-9.5 22.5v416q0 13 9.5 22.5t22.5 9.5t22.5 -9.5t9.5 -22.5v-416q0 -13 -9.5 -22.5t-22.5 -9.5v0z" />
<glyph unicode="&#x22;" horiz-adv-x="320" d="M96 640q-13 0 -22.5 9.5t-9.5 22.5v192q0 13 9.5 22.5t22.5 9.5t22.5 -9.5t9.5 -22.5v-192q0 -13 -9.5 -22.5t-22.5 -9.5v0zM224 640q-13 0 -22.5 9.5t-9.5 22.5v192q0 13 9.5 22.5t22.5 9.5t22.5 -9.5t9.5 -22.5v-192q0 -13 -9.5 -22.5t-22.5 -9.5v0z" />
<glyph unicode="#" horiz-adv-x="832" d="M736 640h-127l30 154q3 13 -4.5 24t-20.5 13q-13 3 -24 -4.5t-13 -20.5l-34 -166h-190l30 154q3 13 -4.5 24t-20.5 13q-13 3 -24 -4.5t-13 -20.5l-34 -166h-127q-13 0 -22.5 -9.5t-9.5 -22.5t9.5 -22.5t22.5 -9.5h115l-39 -192h-140q-13 0 -22.5 -9.5t-9.5 -22.5 t9.5 -22.5t22.5 -9.5h127l-30 -154q-3 -13 4.5 -24t20.5 -13q1 -1 2.5 -1h3.5q11 0 20 7t11 19l34 166h190l-30 -154q-3 -13 4.5 -24t20.5 -13q1 -1 2.5 -1h3.5q11 0 20 7t11 19l34 166h127q13 0 22.5 9.5t9.5 22.5t-9.5 22.5t-22.5 9.5h-115l39 192h140q13 0 22.5 9.5 t9.5 22.5t-9.5 22.5t-22.5 9.5v0zM492 384h-191l39 192h191l-39 -192v0z" />
<glyph unicode="$" horiz-adv-x="704" d="M542 453q-33 16 -74 28.5t-84 23.5v262q46 -3 82.5 -11.5t60.5 -16.5q30 -11 46.5 -20.5l16.5 -9.5q11 -7 24 -4.5t21 13.5q7 11 4.5 24t-13.5 21q-3 2 -67 32t-175 36v33q0 13 -9.5 22.5t-22.5 9.5t-22.5 -9.5t-9.5 -22.5v-33q-68 -3 -118.5 -18.5t-82.5 -44.5 q-28 -24 -41.5 -56.5t-13.5 -71.5q0 -42 24.5 -75t73.5 -58q33 -16 74 -28.5t84 -23.5v-262q-46 3 -82.5 11.5t-60.5 16.5q-30 11 -46.5 20t-16.5 10q-11 7 -24 4.5t-21 -13.5q-7 -11 -4.5 -24t13.5 -21q3 -2 67 -32t175 -36v-33q0 -13 9.5 -22.5t22.5 -9.5t22.5 9.5 t9.5 22.5v33q68 3 118.5 18.5t82.5 44.5q28 24 41.5 56.5t13.5 71.5q0 42 -24.5 75t-73.5 58v0zM190 565q-21 10 -41.5 28t-20.5 47q0 25 8 45t25 35q24 21 63.5 33t95.5 14v-246q-36 9 -69.5 19.5t-60.5 24.5v0zM543 240q-24 -21 -63.5 -33t-95.5 -14v246q36 -9 69.5 -19.5 t60.5 -24.5q21 -10 41.5 -28t20.5 -47q0 -25 -8 -45t-25 -35v0z" />
<glyph unicode="%" horiz-adv-x="768" d="M192 512q-42 0 -70 13.5t-42 41.5q-12 22 -14 49t-2 56t2 56t14 49q14 28 42 41.5t70 13.5t70 -13.5t42 -41.5q12 -22 14 -49t2 -56t-2 -56t-14 -49q-14 -28 -42 -41.5t-70 -13.5v0zM192 768q-46 0 -55 -19.5t-9 -76.5t9 -76.5t55 -19.5t55 19.5t9 76.5t-9 76.5t-55 19.5 v0zM576 128q-42 0 -70 13.5t-42 41.5q-12 22 -14 49t-2 56t2 56t14 49q14 28 42 41.5t70 13.5t70 -13.5t42 -41.5q12 -22 14 -49t2 -56t-2 -56t-14 -49q-14 -28 -42 -41.5t-70 -13.5v0zM576 384q-46 0 -55 -19.5t-9 -76.5t9 -76.5t55 -19.5t55 19.5t9 76.5t-9 76.5t-55 19.5 v0zM160 128q-5 0 -9.5 1.5t-8.5 4.5q-11 7 -13.5 20t5.5 24l448 640q7 11 20 13.5t24 -5.5q11 -7 13.5 -20t-5.5 -24l-448 -640q-4 -7 -11 -10.5t-15 -3.5v0z" />
<glyph unicode="&#x26;" d="M544 448h-192q-13 0 -22.5 -9.5t-9.5 -22.5t9.5 -22.5t22.5 -9.5h96v-32q0 -48 -6.5 -77t-21.5 -46q-17 -19 -49 -28t-83 -9t-83 9t-49 28q-15 17 -21.5 46t-6.5 77t6.5 77t21.5 46q17 19 49 28t83 9q13 0 22.5 9.5t9.5 22.5t-9.5 22.5t-22.5 9.5q-30 0 -49 4.5t-28 14.5 q-10 9 -14.5 28t-4.5 49t4.5 49t14.5 28q9 10 28 14.5t49 4.5t49 -4.5t28 -14.5q10 -9 14.5 -28t4.5 -49q0 -13 9.5 -22.5t22.5 -9.5t22.5 9.5t9.5 22.5q0 44 -9 73.5t-28 49.5q-20 19 -49.5 28t-73.5 9t-73.5 -9t-49.5 -28q-19 -20 -28 -49.5t-9 -73.5q0 -41 8 -69.5 t24 -47.5q-16 -7 -29 -16.5t-23 -21.5q-29 -33 -36.5 -77.5t-7.5 -87.5t7.5 -87.5t36.5 -77.5q26 -30 70 -44.5t110 -14.5t110 14.5t70 44.5q29 33 36.5 77.5t7.5 87.5v32h32q13 0 22.5 9.5t9.5 22.5t-9.5 22.5t-22.5 9.5v0z" />
<glyph unicode="'" horiz-adv-x="192" d="M96 640q-13 0 -22.5 9.5t-9.5 22.5v192q0 13 9.5 22.5t22.5 9.5t22.5 -9.5t9.5 -22.5v-192q0 -13 -9.5 -22.5t-22.5 -9.5v0z" />
<glyph unicode="(" horiz-adv-x="384" d="M288 -64q-6 0 -11.5 2t-9.5 6q-50 43 -88 99.5t-65 125.5q-24 64 -37 135t-13 144t13 144t37 135q27 69 65 125.5t88 99.5q10 9 23 8t22 -11t8 -23t-11 -22q-42 -37 -76 -87t-57 -108.5t-35.5 -124.5t-12.5 -136t12.5 -136t35.5 -124.5t57 -108.5t76 -87q10 -9 11 -22 t-8 -23q-5 -5 -11 -8t-13 -3v0z" />
<glyph unicode=")" horiz-adv-x="384" d="M96 -64q6 0 11.5 2t9.5 6q50 43 88 99.5t65 125.5q24 64 37 135t13 144t-13 144t-37 135q-27 69 -65 125.5t-88 99.5q-10 9 -23 8t-22 -11t-8 -23t11 -22q42 -37 76 -87t57 -108.5t35.5 -124.5t12.5 -136t-12.5 -136t-35.5 -124.5t-57 -108.5t-76 -87q-10 -9 -11 -22 t8 -23q5 -5 11 -8t13 -3v0z" />
<glyph unicode="*" horiz-adv-x="576" d="M498 571l-152 101l152 101q11 8 13.5 21t-4.5 24q-8 11 -21 13.5t-24 -4.5l-142 -95v132q0 13 -9.5 22.5t-22.5 9.5t-22.5 -9.5t-9.5 -22.5v-132l-142 95q-11 7 -24 4.5t-21 -13.5q-7 -11 -4.5 -24t13.5 -21l152 -101l-152 -101q-11 -8 -13.5 -21t4.5 -24q5 -7 12 -10.5 t15 -3.5q5 0 9.5 1.5t8.5 3.5l142 95v-132q0 -13 9.5 -22.5t22.5 -9.5t22.5 9.5t9.5 22.5v132l142 -95q4 -2 8.5 -3.5t9.5 -1.5q8 0 15 3.5t12 10.5q7 11 4.5 24t-13.5 21v0z" />
<glyph unicode="+" horiz-adv-x="576" d="M480 448h-160v160q0 13 -9.5 22.5t-22.5 9.5t-22.5 -9.5t-9.5 -22.5v-160h-160q-13 0 -22.5 -9.5t-9.5 -22.5t9.5 -22.5t22.5 -9.5h160v-160q0 -13 9.5 -22.5t22.5 -9.5t22.5 9.5t9.5 22.5v160h160q13 0 22.5 9.5t9.5 22.5t-9.5 22.5t-22.5 9.5v0z" />
<glyph unicode="," horiz-adv-x="256" d="M192 224q0 13 -9.5 22.5t-22.5 9.5h-64q-13 0 -22.5 -9.5t-9.5 -22.5t9.5 -22.5t22.5 -9.5h31q-7 -68 -29.5 -102t-24.5 -36v1q-4 -5 -6.5 -10.5t-2.5 -12.5q0 -13 9.5 -22.5t22.5 -9.5q7 0 12.5 2.5t10.5 6.5q2 3 37.5 56.5t35.5 158.5v0z" />
<glyph unicode="-" horiz-adv-x="448" d="M352 448h-256q-13 0 -22.5 -9.5t-9.5 -22.5t9.5 -22.5t22.5 -9.5h256q13 0 22.5 9.5t9.5 22.5t-9.5 22.5t-22.5 9.5v0z" />
<glyph unicode="." horiz-adv-x="192" d="M96 128q-13 0 -22.5 9.5t-9.5 22.5v64q0 13 9.5 22.5t22.5 9.5t22.5 -9.5t9.5 -22.5v-64q0 -13 -9.5 -22.5t-22.5 -9.5v0z" />
<glyph unicode="/" horiz-adv-x="576" d="M96 -64q-3 0 -6 0.5t-6 1.5q-12 5 -17.5 17.5t-0.5 24.5l384 960q5 12 17.5 17.5t24.5 0.5t17.5 -17.5t0.5 -24.5l-384 -960q-4 -9 -12 -14.5t-18 -5.5v0z" />
<glyph unicode="0" d="M320 128q-77 0 -129.5 26t-82.5 78q-29 51 -36.5 118t-7.5 130q0 113 14 166t30 82q30 52 82.5 78t129.5 26t129.5 -26t82.5 -78q29 -51 36.5 -118t7.5 -130q0 -113 -14 -166t-30 -82q-30 -52 -82.5 -78t-129.5 -26v0zM320 768q-77 0 -110 -24.5t-46 -47.5 q-19 -33 -27.5 -84t-8.5 -132t8.5 -132t27.5 -84q13 -23 46 -47.5t110 -24.5t110 24.5t46 47.5q19 33 27.5 84t8.5 132t-8.5 132t-27.5 84q-13 23 -46 47.5t-110 24.5v0z" />
<glyph unicode="1" horiz-adv-x="320" d="M224 128q-13 0 -22.5 9.5t-9.5 22.5v563l-73 -74q-10 -9 -23 -9t-23 9q-9 10 -9 23t9 23l128 128q7 6 16.5 8t18.5 -1q9 -4 14.5 -12t5.5 -18v-640q0 -13 -9.5 -22.5t-22.5 -9.5v0z" />
<glyph unicode="2" d="M544 128h-448q-13 0 -22.5 9.5t-9.5 22.5q0 73 24 129t72 96q41 34 91 54t96 36q79 27 122 52.5t43 80.5q0 48 -7 76.5t-24 44.5q-19 20 -58.5 29.5t-102.5 9.5t-102.5 -9.5t-58.5 -29.5q-17 -16 -24 -44.5t-7 -76.5q0 -13 -9.5 -22.5t-22.5 -9.5t-22.5 9.5t-9.5 22.5 q0 46 8.5 90t40.5 77q30 29 80 43t127 14t127 -14t80 -43q32 -33 40.5 -77t8.5 -90q0 -42 -17.5 -75t-52.5 -57q-29 -20 -64 -34t-74 -27q-45 -16 -89 -33.5t-78 -45.5q-32 -27 -49.5 -62.5t-22.5 -81.5h415q13 0 22.5 -9.5t9.5 -22.5t-9.5 -22.5t-22.5 -9.5v0z" />
<glyph unicode="3" d="M525 460q-6 6 -13.5 11t-15.5 9q8 4 15.5 9t13.5 11q34 30 42.5 68.5t8.5 71.5t-8.5 71.5t-42.5 68.5q-30 27 -80 39.5t-125 12.5q-66 0 -112.5 -10t-77.5 -30q-28 -19 -44 -48t-20 -69q-2 -13 6.5 -23t21.5 -12q13 -1 23.5 7.5t11.5 21.5q3 29 29.5 64t161.5 35 q61 0 101.5 -9t61.5 -27q15 -14 22 -35.5t7 -56.5t-7 -56.5t-22 -35.5q-21 -18 -61 -27t-102 -9h-32q-13 0 -22.5 -9.5t-9.5 -22.5t9.5 -22.5t22.5 -9.5h32v0v0q61 0 101.5 -9t61.5 -27q15 -14 22 -35.5t7 -56.5t-7 -56.5t-22 -35.5q-21 -18 -61.5 -27t-101.5 -9 q-124 0 -155 30t-35 67q-2 13 -12.5 21.5t-23.5 6.5q-13 -1 -21.5 -11.5t-6.5 -23.5q4 -39 20.5 -67.5t45.5 -47.5q30 -20 76 -29.5t112 -9.5q75 0 125 12.5t80 39.5q34 30 42.5 68.5t8.5 71.5t-8.5 71.5t-42.5 68.5v0z" />
<glyph unicode="4" d="M416 128q-13 0 -22.5 9.5t-9.5 22.5v160h-288q-9 0 -16.5 4.5t-11.5 12.5q-5 8 -4 17t6 17l320 448q6 8 16 11.5t20 -0.5q10 -3 16 -11.5t6 -18.5v-416h96q13 0 22.5 -9.5t9.5 -22.5t-9.5 -22.5t-22.5 -9.5h-96v-160q0 -13 -9.5 -22.5t-22.5 -9.5v0zM158 384h226v316 l-226 -316v0z" />
<glyph unicode="5" d="M320 128q-45 0 -81 4.5t-64 14.5q-28 9 -48.5 24t-34.5 35q-8 11 -5.5 24t13.5 21q11 7 24 4.5t21 -13.5q6 -9 37.5 -29.5t137.5 -20.5q61 0 101.5 9t61.5 27q15 14 22 35.5t7 56.5t-7 56.5t-22 35.5q-21 18 -61.5 27t-101.5 9h-160q-7 0 -13 2.5t-11 8.5q-4 5 -6.5 11 t-1.5 13l32 320q1 12 10.5 20.5t21.5 8.5h352q13 0 22.5 -9.5t9.5 -22.5t-9.5 -22.5t-22.5 -9.5h-323l-26 -256h125q75 0 125 -12.5t80 -39.5q34 -30 42.5 -68.5t8.5 -71.5t-8.5 -71.5t-42.5 -68.5q-30 -27 -80 -39.5t-125 -12.5v0z" />
<glyph unicode="6" d="M115 180q30 -27 80 -39.5t125 -12.5t125 12.5t80 39.5q34 30 42.5 68.5t8.5 71.5t-8.5 71.5t-42.5 68.5q-30 27 -80 39.5t-125 12.5q-67 0 -114 -10t-78 -32v170q0 35 7 56.5t22 35.5q21 18 61.5 27t101.5 9q135 0 161.5 -35t29.5 -64q1 -13 11.5 -21.5t23.5 -7.5 q13 2 21.5 12t6.5 23q-4 40 -20 69t-44 48q-31 20 -77.5 30t-112.5 10q-75 0 -125 -12.5t-80 -39.5q-34 -30 -42.5 -68.5t-8.5 -71.5v-320q0 -33 8.5 -71.5t42.5 -68.5v0zM157 412q21 18 61.5 27t101.5 9t101.5 -9t61.5 -27q15 -14 22 -35.5t7 -56.5t-7 -56.5t-22 -35.5 q-21 -18 -61.5 -27t-101.5 -9t-101.5 9t-61.5 27q-15 14 -22 35.5t-7 56.5t7 56.5t22 35.5v0z" />
<glyph unicode="7" d="M224 128q-4 0 -7.5 1t-6.5 2q-12 6 -16.5 18.5t1.5 24.5l297 594h-396q-13 0 -22.5 9.5t-9.5 22.5t9.5 22.5t22.5 9.5h448q8 0 15.5 -4t11.5 -11q5 -7 5 -15.5t-3 -15.5l-320 -640q-5 -9 -12.5 -13.5t-16.5 -4.5v0z" />
<glyph unicode="8" d="M525 460q-6 6 -13.5 11t-15.5 9q8 4 15.5 9t13.5 11q34 30 42.5 68.5t8.5 71.5t-8.5 71.5t-42.5 68.5q-30 27 -80 39.5t-125 12.5t-125 -12.5t-80 -39.5q-34 -30 -42.5 -68.5t-8.5 -71.5t8.5 -71.5t42.5 -68.5q6 -6 13.5 -11t15.5 -9q-8 -4 -15.5 -9t-13.5 -11 q-34 -30 -42.5 -68.5t-8.5 -71.5t8.5 -71.5t42.5 -68.5q30 -27 80 -39.5t125 -12.5t125 12.5t80 39.5q34 30 42.5 68.5t8.5 71.5t-8.5 71.5t-42.5 68.5v0zM157 732q21 18 61.5 27t101.5 9t101.5 -9t61.5 -27q15 -14 22 -35.5t7 -56.5t-7 -56.5t-22 -35.5q-21 -18 -61.5 -27 t-101.5 -9t-101.5 9t-61.5 27q-15 14 -22 35.5t-7 56.5t7 56.5t22 35.5v0zM483 228q-21 -18 -61.5 -27t-101.5 -9t-101.5 9t-61.5 27q-15 14 -22 35.5t-7 56.5t7 56.5t22 35.5q21 18 61.5 27t101.5 9t101.5 -9t61.5 -27q15 -14 22 -35.5t7 -56.5t-7 -56.5t-22 -35.5v0z" />
<glyph unicode="9" d="M525 780q-30 27 -80 39.5t-125 12.5t-125 -12.5t-80 -39.5q-34 -30 -42.5 -68.5t-8.5 -71.5t8.5 -71.5t42.5 -68.5q30 -27 80 -39.5t125 -12.5q67 0 114 10t78 32v-170q0 -35 -7 -56.5t-22 -35.5q-21 -18 -61.5 -27t-101.5 -9q-135 0 -161.5 35t-29.5 64 q-1 13 -11.5 21.5t-23.5 7.5q-13 -2 -21.5 -12t-6.5 -23q4 -40 20 -69t44 -48q31 -20 77.5 -30t112.5 -10q75 0 125 12.5t80 39.5q34 30 42.5 68.5t8.5 71.5v320q0 33 -8.5 71.5t-42.5 68.5v0zM483 548q-21 -18 -61.5 -27t-101.5 -9t-101.5 9t-61.5 27q-15 14 -22 35.5 t-7 56.5t7 56.5t22 35.5q21 18 61.5 27t101.5 9t101.5 -9t61.5 -27q15 -14 22 -35.5t7 -56.5t-7 -56.5t-22 -35.5v0z" />
<glyph unicode=":" horiz-adv-x="192" d="M96 128q-13 0 -22.5 9.5t-9.5 22.5v64q0 13 9.5 22.5t22.5 9.5t22.5 -9.5t9.5 -22.5v-64q0 -13 -9.5 -22.5t-22.5 -9.5v0zM96 512q-13 0 -22.5 9.5t-9.5 22.5v64q0 13 9.5 22.5t22.5 9.5t22.5 -9.5t9.5 -22.5v-64q0 -13 -9.5 -22.5t-22.5 -9.5v0z" />
<glyph unicode=";" horiz-adv-x="256" d="M192 224q0 13 -9.5 22.5t-22.5 9.5h-64q-13 0 -22.5 -9.5t-9.5 -22.5t9.5 -22.5t22.5 -9.5h31q-7 -68 -29.5 -102t-24.5 -36v1q-4 -5 -6.5 -10.5t-2.5 -12.5q0 -13 9.5 -22.5t22.5 -9.5q7 0 12.5 2.5t10.5 6.5q2 3 37.5 56.5t35.5 158.5v0zM160 512q-13 0 -22.5 9.5 t-9.5 22.5v64q0 13 9.5 22.5t22.5 9.5t22.5 -9.5t9.5 -22.5v-64q0 -13 -9.5 -22.5t-22.5 -9.5v0z" />
<glyph unicode="&#x3c;" horiz-adv-x="576" d="M480 192q-4 0 -7.5 1t-6.5 2l-384 192q-8 4 -13 12t-5 17t5 17t13 12l384 192q12 6 24.5 1.5t18.5 -16.5t1.5 -24.5t-16.5 -18.5l-326 -163l326 -163q12 -6 16.5 -18.5t-1.5 -24.5q-5 -9 -12.5 -13.5t-16.5 -4.5v0z" />
<glyph unicode="=" horiz-adv-x="576" d="M480 512h-384q-13 0 -22.5 9.5t-9.5 22.5t9.5 22.5t22.5 9.5h384q13 0 22.5 -9.5t9.5 -22.5t-9.5 -22.5t-22.5 -9.5v0zM480 256h-384q-13 0 -22.5 9.5t-9.5 22.5t9.5 22.5t22.5 9.5h384q13 0 22.5 -9.5t9.5 -22.5t-9.5 -22.5t-22.5 -9.5v0z" />
<glyph unicode="&#x3e;" horiz-adv-x="576" d="M96 192q4 0 7.5 1t6.5 2l384 192q8 4 13 12t5 17t-5 17t-13 12l-384 192q-12 6 -24.5 1.5t-18.5 -16.5t-1.5 -24.5t16.5 -18.5l326 -163l-326 -163q-12 -6 -16.5 -18.5t1.5 -24.5q5 -9 12.5 -13.5t16.5 -4.5v0z" />
<glyph unicode="?" horiz-adv-x="576" d="M288 320q-13 0 -22.5 9.5t-9.5 22.5v64q0 13 9.5 22.5t22.5 9.5q51 0 83 9t49 28q15 17 21.5 46t6.5 77t-6.5 77t-21.5 46q-17 19 -49 28t-83 9t-83 -9t-49 -28q-15 -17 -21.5 -46t-6.5 -77q0 -13 -9.5 -22.5t-22.5 -9.5t-22.5 9.5t-9.5 22.5q0 43 7.5 87.5t36.5 77.5 q26 30 70 44.5t110 14.5t110 -14.5t70 -44.5q29 -33 36.5 -77.5t7.5 -87.5t-7.5 -87.5t-36.5 -77.5q-23 -26 -59.5 -40.5t-88.5 -17.5v-33q0 -13 -9.5 -22.5t-22.5 -9.5v0zM288 128q-13 0 -22.5 9.5t-9.5 22.5v64q0 13 9.5 22.5t22.5 9.5t22.5 -9.5t9.5 -22.5v-64 q0 -13 -9.5 -22.5t-22.5 -9.5v0z" />
<glyph unicode="@" horiz-adv-x="832" d="M683 747q-43 43 -109.5 64t-157.5 21t-157.5 -21t-109.5 -64t-64 -109.5t-21 -157.5t21 -157.5t64 -109.5t109.5 -64t157.5 -21q84 0 146.5 17.5t105.5 54.5q10 8 11 21t-8 24q-8 10 -21.5 11t-23.5 -8q-34 -28 -86 -42t-124 -14q-78 0 -133 16.5t-88 50.5 q-34 33 -50.5 88t-16.5 133t16.5 133t50.5 88q33 34 88 50.5t133 16.5t133 -16.5t88 -50.5q34 -33 50.5 -88t16.5 -133v-32q0 -14 -10.5 -39t-53.5 -25t-53.5 25t-10.5 39v32q0 44 -9 73.5t-28 49.5q-20 19 -49.5 28t-73.5 9t-73.5 -9t-49.5 -28q-19 -20 -28 -49.5t-9 -73.5 t9 -73.5t28 -49.5q20 -19 49.5 -28t73.5 -9t73.5 9t49.5 28q1 1 1.5 2t1.5 2q17 -19 42 -30t56 -11q57 0 92.5 35.5t35.5 92.5v32q0 91 -21 157.5t-64 109.5v0zM493 403q-9 -10 -28 -14.5t-49 -4.5t-49 4.5t-28 14.5q-10 9 -14.5 28t-4.5 49t4.5 49t14.5 28q9 10 28 14.5 t49 4.5t49 -4.5t28 -14.5q10 -9 14.5 -28t4.5 -49t-4.5 -49t-14.5 -28v0z" />
<glyph unicode="A" horiz-adv-x="704" d="M638 172l-256 640q-4 9 -12 14.5t-18 5.5t-18 -5.5t-12 -14.5l-256 -640q-5 -12 0.5 -24.5t17.5 -17.5t24.5 0.5t17.5 17.5l68 172h316l68 -172q4 -9 12 -14.5t18 -5.5q3 0 6 0.5t6 1.5q12 5 17.5 17.5t0.5 24.5v0zM220 384l132 330l132 -330h-264v0z" />
<glyph unicode="B" d="M320 128h-224q-13 0 -22.5 9.5t-9.5 22.5v640q0 13 9.5 22.5t22.5 9.5h224q58 0 97.5 -9t65.5 -29q31 -23 46 -61t15 -93q0 -54 -14.5 -91.5t-44.5 -60.5q7 -3 13 -6.5t12 -6.5q34 -23 50 -60.5t16 -94.5t-16 -94.5t-50 -60.5q-30 -19 -75 -28t-115 -9v0zM128 192h192 q122 0 157 28.5t35 99.5q0 28 -6.5 56.5t-31.5 44.5q-20 14 -57.5 20.5t-96.5 6.5h-192v-256v0zM320 512q46 0 76.5 6.5t48.5 19.5q11 8 23 29.5t12 72.5t-12 72.5t-23 29.5q-18 13 -48.5 19.5t-76.5 6.5h-192v-256h192v0z" />
<glyph unicode="C" horiz-adv-x="704" d="M384 128q-81 0 -140 21.5t-100 64.5q-40 44 -60 110t-20 156q0 96 16.5 159.5t51.5 105.5q37 44 99 65.5t153 21.5q84 0 142.5 -18t96.5 -55q10 -9 10 -22.5t-9 -22.5q-10 -10 -23 -10t-23 9q-28 28 -75.5 41.5t-118.5 13.5q-100 0 -143 -22t-61 -43q-27 -32 -39.5 -85.5 t-12.5 -137.5q0 -77 15.5 -132.5t48.5 -89.5q30 -33 77.5 -49.5t114.5 -16.5q61 0 106.5 14t75.5 42q10 9 23.5 8t22.5 -10q8 -10 7.5 -23.5t-9.5 -22.5q-40 -36 -96 -54t-130 -18v0z" />
<glyph unicode="D" horiz-adv-x="704" d="M320 128h-224q-13 0 -22.5 9.5t-9.5 22.5v640q0 13 9.5 22.5t22.5 9.5h224q91 0 153 -21.5t99 -65.5q35 -42 51.5 -105.5t16.5 -159.5q0 -90 -20 -156t-60 -110q-41 -43 -100 -64.5t-140 -21.5v0zM128 192h192q67 0 114.5 16.5t77.5 49.5q33 34 48.5 89.5t15.5 132.5 q0 84 -12.5 137.5t-39.5 85.5q-18 21 -61 43t-143 22h-192v-576v0z" />
<glyph unicode="E" d="M544 192h-416v256h352q13 0 22.5 9.5t9.5 22.5t-9.5 22.5t-22.5 9.5h-352v256h416q13 0 22.5 9.5t9.5 22.5t-9.5 22.5t-22.5 9.5h-448q-13 0 -22.5 -9.5t-9.5 -22.5v-640q0 -13 9.5 -22.5t22.5 -9.5h448q13 0 22.5 9.5t9.5 22.5t-9.5 22.5t-22.5 9.5v0z" />
<glyph unicode="F" d="M544 832h-448q-13 0 -22.5 -9.5t-9.5 -22.5v-640q0 -13 9.5 -22.5t22.5 -9.5t22.5 9.5t9.5 22.5v288h352q13 0 22.5 9.5t9.5 22.5t-9.5 22.5t-22.5 9.5h-352v256h416q13 0 22.5 9.5t9.5 22.5t-9.5 22.5t-22.5 9.5v0z" />
<glyph unicode="G" horiz-adv-x="704" d="M384 128q-81 0 -140 21.5t-100 64.5q-40 44 -60 110t-20 156q0 96 16.5 159.5t51.5 105.5q37 44 99 65.5t153 21.5q84 0 142.5 -18t96.5 -55q10 -9 10 -22.5t-9 -22.5q-10 -10 -23 -10t-23 9q-28 28 -75.5 41.5t-118.5 13.5q-100 0 -143 -22t-61 -43q-27 -32 -39.5 -85.5 t-12.5 -137.5q0 -77 15.5 -132.5t48.5 -89.5q30 -33 77.5 -49.5t114.5 -16.5q66 0 113.5 16t78.5 49v191h-96q-13 0 -22.5 9.5t-9.5 22.5t9.5 22.5t22.5 9.5h128q13 0 22.5 -9.5t9.5 -22.5v-235q0 -5 -2 -10.5t-5 -9.5q-40 -49 -102 -73t-147 -24v0z" />
<glyph unicode="H" d="M544 832q-13 0 -22.5 -9.5t-9.5 -22.5v-288h-384v288q0 13 -9.5 22.5t-22.5 9.5t-22.5 -9.5t-9.5 -22.5v-640q0 -13 9.5 -22.5t22.5 -9.5t22.5 9.5t9.5 22.5v288h384v-288q0 -13 9.5 -22.5t22.5 -9.5t22.5 9.5t9.5 22.5v640q0 13 -9.5 22.5t-22.5 9.5v0z" />
<glyph unicode="I" horiz-adv-x="192" d="M96 128q-13 0 -22.5 9.5t-9.5 22.5v640q0 13 9.5 22.5t22.5 9.5t22.5 -9.5t9.5 -22.5v-640q0 -13 -9.5 -22.5t-22.5 -9.5v0z" />
<glyph unicode="J" horiz-adv-x="512" d="M224 128q-48 0 -86.5 17t-65.5 50q-9 10 -8 23t11 22q11 8 24 7t21 -11q19 -22 44.5 -33t59.5 -11q64 0 91 18t38 35q16 25 23.5 66.5t7.5 104.5v384q0 13 9.5 22.5t22.5 9.5t22.5 -9.5t9.5 -22.5v-384q0 -74 -9.5 -122.5t-31.5 -82.5q-27 -42 -72 -62.5t-111 -20.5v0z " />
<glyph unicode="K" d="M564 185l-384 295l384 295q10 8 11.5 21t-6.5 24q-8 10 -21 11.5t-24 -6.5l-396 -305v280q0 13 -9.5 22.5t-22.5 9.5t-22.5 -9.5t-9.5 -22.5v-640q0 -13 9.5 -22.5t22.5 -9.5t22.5 9.5t9.5 22.5v280l396 -305q5 -4 10 -5.5t10 -1.5q7 0 14 3t11 9q8 11 6.5 24t-11.5 21v0 z" />
<glyph unicode="L" d="M544 128h-448q-13 0 -22.5 9.5t-9.5 22.5v640q0 13 9.5 22.5t22.5 9.5t22.5 -9.5t9.5 -22.5v-608h416q13 0 22.5 -9.5t9.5 -22.5t-9.5 -22.5t-22.5 -9.5v0z" />
<glyph unicode="M" horiz-adv-x="960" d="M864 128q-11 0 -20 7t-11 19l-109 541l-215 -484q-4 -9 -12 -14t-17 -5t-17 5t-12 14l-215 484l-109 -541q-2 -13 -13 -20.5t-24 -4.5q-13 2 -20.5 13t-4.5 24l128 640q2 11 9.5 18t17.5 8q11 1 20 -4t13 -15l227 -510l227 510q4 10 13 15t20 4q10 -1 17.5 -8t9.5 -18 l128 -640q3 -13 -4.5 -24t-20.5 -13q-1 -1 -2.5 -1h-3.5v0z" />
<glyph unicode="N" d="M544 128q-8 0 -15 3.5t-11 10.5l-390 556v-538q0 -13 -9.5 -22.5t-22.5 -9.5t-22.5 9.5t-9.5 22.5v640q0 10 6 18.5t16 12.5q10 3 20 -0.5t16 -12.5l390 -556v538q0 13 9.5 22.5t22.5 9.5t22.5 -9.5t9.5 -22.5v-640q0 -10 -6 -18.5t-16 -12.5q-3 0 -5.5 -0.5t-4.5 -0.5v0 z" />
<glyph unicode="O" horiz-adv-x="768" d="M384 128q-81 0 -140 21.5t-100 64.5q-40 44 -60 110t-20 156q0 96 16.5 159.5t51.5 105.5q37 44 99 65.5t153 21.5t153 -21.5t99 -65.5q35 -42 51.5 -105.5t16.5 -159.5q0 -90 -20 -156t-60 -110q-41 -43 -100 -64.5t-140 -21.5v0zM384 768q-100 0 -143 -22t-61 -43 q-27 -32 -39.5 -85.5t-12.5 -137.5q0 -77 15.5 -132.5t48.5 -89.5q30 -33 77.5 -49.5t114.5 -16.5t114.5 16.5t77.5 49.5q33 34 48.5 89.5t15.5 132.5q0 84 -12.5 137.5t-39.5 85.5q-18 21 -61 43t-143 22v0z" />
<glyph unicode="P" d="M96 128q-13 0 -22.5 9.5t-9.5 22.5v640q0 13 9.5 22.5t22.5 9.5h224q70 0 115 -9t75 -28q34 -23 50 -60.5t16 -94.5t-16 -94.5t-50 -60.5q-30 -19 -75 -28t-115 -9h-192v-288q0 -13 -9.5 -22.5t-22.5 -9.5v0zM128 512h192q122 0 157 28.5t35 99.5q0 81 -43 104.5 t-149 23.5h-192v-256v0z" />
<glyph unicode="Q" horiz-adv-x="768" d="M605 63q-23 -2 -78 3.5t-87 35.5q-7 6 -11.5 13t-7.5 14q67 5 117 26t86 59q40 44 60 110t20 156q0 96 -16.5 159.5t-51.5 105.5q-37 44 -99 65.5t-153 21.5t-153 -21.5t-99 -65.5q-35 -42 -51.5 -105.5t-16.5 -159.5q0 -90 20 -156t60 -110q37 -39 89 -60.5t122 -24.5 q4 -22 14.5 -40.5t26.5 -33.5q24 -21 58 -35t79 -19q15 -2 28.5 -2.5t24.5 -0.5t17.5 0.5t7.5 0.5q13 1 21.5 11t7.5 23t-11 22t-24 8v0zM192 258q-33 34 -48.5 89.5t-15.5 132.5q0 84 12.5 137.5t39.5 85.5q18 21 61 43t143 22t143 -22t61 -43q27 -32 39.5 -85.5 t12.5 -137.5q0 -77 -15.5 -132.5t-48.5 -89.5q-30 -33 -77.5 -49.5t-114.5 -16.5t-114.5 16.5t-77.5 49.5v0z" />
<glyph unicode="R" d="M406 452q34 4 59.5 12.5t44.5 20.5q34 23 50 60.5t16 94.5t-16 94.5t-50 60.5q-30 19 -75 28t-115 9h-224q-13 0 -22.5 -9.5t-9.5 -22.5v-640q0 -13 9.5 -22.5t22.5 -9.5t22.5 9.5t9.5 22.5v288h192h7.5h6.5l183 -304q4 -8 11.5 -12t15.5 -4q4 0 8.5 1t7.5 4q12 6 15 19 t-4 24l-165 276v0zM128 512v256h192q106 0 149 -23.5t43 -104.5q0 -71 -35 -99.5t-157 -28.5h-192v0z" />
<glyph unicode="S" horiz-adv-x="704" d="M352 128q-126 0 -198.5 33.5t-75.5 35.5q-11 8 -13.5 21t4.5 24q8 11 21 13.5t24 -4.5q0 -1 16.5 -10t46.5 -20q28 -10 72.5 -19.5t102.5 -9.5q68 0 116 12t75 36q17 15 25 35t8 45q0 29 -20.5 47t-41.5 28q-34 17 -79 29.5t-91 24.5q-48 12 -96 25.5t-86 32.5 q-49 25 -73.5 58t-24.5 75q0 39 13.5 71.5t41.5 56.5q36 32 94.5 48t138.5 16q126 0 198.5 -33.5t75.5 -35.5q11 -8 13.5 -21t-4.5 -24q-8 -11 -21 -13.5t-24 4.5l-16.5 9.5t-46.5 20.5q-28 10 -72.5 19.5t-102.5 9.5q-68 0 -116 -12t-75 -36q-17 -15 -25 -35t-8 -45 q0 -29 20.5 -46.5t41.5 -28.5q34 -17 79 -29.5t91 -24.5q48 -12 96 -25.5t86 -32.5q49 -25 73.5 -58t24.5 -75q0 -39 -13.5 -71.5t-41.5 -56.5q-36 -32 -94.5 -48t-138.5 -16v0z" />
<glyph unicode="T" horiz-adv-x="704" d="M608 832h-512q-13 0 -22.5 -9.5t-9.5 -22.5t9.5 -22.5t22.5 -9.5h224v-608q0 -13 9.5 -22.5t22.5 -9.5t22.5 9.5t9.5 22.5v608h224q13 0 22.5 9.5t9.5 22.5t-9.5 22.5t-22.5 9.5v0z" />
<glyph unicode="U" horiz-adv-x="704" d="M352 128q-88 0 -145.5 19.5t-91.5 60.5t-42.5 96t-8.5 112v384q0 13 9.5 22.5t22.5 9.5t22.5 -9.5t9.5 -22.5v-384q0 -65 8.5 -104.5t28.5 -63.5q23 -29 69 -42.5t118 -13.5t118 13.5t69 42.5q20 24 28.5 63.5t8.5 104.5v384q0 13 9.5 22.5t22.5 9.5t22.5 -9.5t9.5 -22.5 v-384q0 -57 -8.5 -112t-42.5 -96t-91.5 -60.5t-145.5 -19.5v0z" />
<glyph unicode="V" horiz-adv-x="704" d="M352 128q-10 0 -18 5.5t-12 14.5l-256 640q-5 12 0.5 24.5t17.5 17.5t24.5 -0.5t17.5 -17.5l226 -566l226 566q5 12 17.5 17.5t24.5 0.5t17.5 -17.5t0.5 -24.5l-256 -640q-4 -9 -12 -14.5t-18 -5.5v0z" />
<glyph unicode="W" horiz-adv-x="960" d="M672 128q-10 0 -18.5 6t-11.5 16l-162 485l-162 -485q-3 -10 -11.5 -16t-18.5 -6q-11 0 -19.5 6.5t-11.5 16.5l-192 640q-3 12 3 24t19 16q13 3 24.5 -3t15.5 -19l163 -543l160 480q3 10 11.5 16t18.5 6t18.5 -6t11.5 -16l160 -480l163 543q4 13 16 19t24 3 q13 -4 19 -15.5t3 -24.5l-192 -640q-3 -10 -11.5 -16.5t-19.5 -6.5v0v0v0z" />
<glyph unicode="X" d="M359 480l211 302q8 11 5.5 24t-13.5 20q-11 8 -24 5.5t-20 -13.5l-198 -282l-198 282q-7 11 -20 13.5t-24 -5.5q-11 -7 -13.5 -20t5.5 -24l211 -302l-211 -302q-8 -11 -5.5 -24t13.5 -20q4 -3 8.5 -4.5t9.5 -1.5q8 0 15 3.5t11 10.5l198 282l198 -282q4 -7 11 -10.5 t15 -3.5q5 0 9.5 1.5t8.5 4.5q11 7 13.5 20t-5.5 24l-211 302v0z" />
<glyph unicode="Y" horiz-adv-x="704" d="M626 827q-11 7 -24 4.5t-21 -13.5l-229 -344l-229 344q-8 11 -21 13.5t-24 -4.5q-11 -8 -13.5 -21t4.5 -24l251 -376v-246q0 -13 9.5 -22.5t22.5 -9.5t22.5 9.5t9.5 22.5v246l251 376q7 11 4.5 24t-13.5 21v0z" />
<glyph unicode="Z" horiz-adv-x="704" d="M608 128h-512q-9 0 -17 5t-12 13t-3 17.5t7 16.5l470 588h-445q-13 0 -22.5 9.5t-9.5 22.5t9.5 22.5t22.5 9.5h512q9 0 17 -5t12 -13t3 -17.5t-7 -16.5l-470 -588h445q13 0 22.5 -9.5t9.5 -22.5t-9.5 -22.5t-22.5 -9.5v0z" />
<glyph unicode="[" horiz-adv-x="320" d="M224 -64h-128q-13 0 -22.5 9.5t-9.5 22.5v960q0 13 9.5 22.5t22.5 9.5h128q13 0 22.5 -9.5t9.5 -22.5t-9.5 -22.5t-22.5 -9.5h-96v-896h96q13 0 22.5 -9.5t9.5 -22.5t-9.5 -22.5t-22.5 -9.5v0z" />
<glyph unicode="\" horiz-adv-x="576" d="M480 -64q3 0 6 0.5t6 1.5q12 5 17.5 17.5t0.5 24.5l-384 960q-5 12 -17.5 17.5t-24.5 0.5t-17.5 -17.5t-0.5 -24.5l384 -960q4 -9 12 -14.5t18 -5.5v0z" />
<glyph unicode="]" horiz-adv-x="320" d="M96 -64h128q13 0 22.5 9.5t9.5 22.5v960q0 13 -9.5 22.5t-22.5 9.5h-128q-13 0 -22.5 -9.5t-9.5 -22.5t9.5 -22.5t22.5 -9.5h96v-896h-96q-13 0 -22.5 -9.5t-9.5 -22.5t9.5 -22.5t22.5 -9.5v0z" />
<glyph unicode="^" horiz-adv-x="576" d="M480 512q-7 0 -14 3.5t-12 9.5l-166 222l-166 -222q-8 -11 -21.5 -13t-23.5 6q-11 8 -13 21.5t6 23.5l192 256q5 6 11.5 9.5t14.5 3.5t14.5 -3.5t11.5 -9.5l192 -256q8 -10 6 -23.5t-13 -21.5q-4 -3 -9 -4.5t-10 -1.5v0z" />
<glyph unicode="_" horiz-adv-x="512" d="M480 64h-448q-13 0 -22.5 -9.5t-9.5 -22.5t9.5 -22.5t22.5 -9.5h448q13 0 22.5 9.5t9.5 22.5t-9.5 22.5t-22.5 9.5v0z" />
<glyph unicode="`" horiz-adv-x="320" d="M224 640q-8 0 -15 3.5t-12 10.5l-128 192q-7 11 -4.5 24t13.5 21q11 7 24 4.5t21 -13.5l128 -192q7 -11 4.5 -24t-13.5 -21q-4 -2 -8.5 -3.5t-9.5 -1.5v0z" />
<glyph unicode="a" horiz-adv-x="576" d="M449 607q-27 17 -66.5 25t-94.5 8q-46 0 -80.5 -5.5t-60.5 -16.5q-12 -6 -17 -18t1 -25q5 -12 17.5 -16.5t24.5 0.5q19 9 47.5 13t67.5 4q100 0 130 -25t30 -71v-51q-24 10 -62.5 14.5t-97.5 4.5q-52 0 -92.5 -10t-69.5 -30q-30 -21 -46 -51.5t-16 -68.5t16 -68.5 t46 -51.5q29 -20 69.5 -30t92.5 -10q61 0 99.5 4.5t62.5 15.5q4 -9 12 -14.5t18 -5.5q13 0 22.5 9.5t9.5 22.5v320q0 44 -16 76t-47 51v0zM436 213q-17 -14 -62.5 -17.5t-85.5 -3.5q-42 0 -74 7t-52 21q-17 12 -25.5 29t-8.5 39t8.5 39t25.5 29q20 14 52 21t74 7 q40 0 85.5 -3.5t62.5 -17.5q8 -7 10 -23.5t2 -51.5t-2 -51.5t-10 -23.5v0z" />
<glyph unicode="b" d="M515 579q-32 31 -79.5 46t-115.5 15q-67 0 -114 -14.5t-78 -44.5v219q0 13 -9.5 22.5t-22.5 9.5t-22.5 -9.5t-9.5 -22.5v-640q0 -13 9.5 -22.5t22.5 -9.5t22.5 9.5t9.5 22.5v27q31 -30 78 -44.5t114 -14.5q68 0 115.5 15t79.5 46q31 32 46 79.5t15 115.5t-15 115.5 t-46 79.5v0zM469 235q-21 -22 -57.5 -32.5t-91.5 -10.5t-91.5 10.5t-57.5 32.5q-22 21 -32.5 57.5t-10.5 91.5t10.5 91.5t32.5 57.5q21 22 57.5 32.5t91.5 10.5t91.5 -10.5t57.5 -32.5q22 -21 32.5 -57.5t10.5 -91.5t-10.5 -91.5t-32.5 -57.5v0z" />
<glyph unicode="c" horiz-adv-x="576" d="M320 128q-68 0 -115.5 15t-79.5 46q-31 32 -46 79.5t-15 115.5t15 115.5t46 79.5q32 31 79.5 46t115.5 15q61 0 105 -12t75 -36q10 -8 11.5 -21.5t-6.5 -23.5q-8 -11 -21 -12.5t-24 7.5q-22 17 -56.5 25.5t-83.5 8.5q-55 0 -91.5 -10.5t-57.5 -32.5q-22 -21 -32.5 -57.5 t-10.5 -91.5t10.5 -91.5t32.5 -57.5q21 -22 57.5 -32.5t91.5 -10.5q49 0 83.5 8.5t56.5 25.5q11 9 24 7.5t21 -12.5q8 -10 6.5 -23.5t-11.5 -21.5q-31 -24 -75 -36t-105 -12v0z" />
<glyph unicode="d" d="M544 832q-13 0 -22.5 -9.5t-9.5 -22.5v-219q-31 30 -78 44.5t-114 14.5q-68 0 -115.5 -15t-79.5 -46q-31 -32 -46 -79.5t-15 -115.5t15 -115.5t46 -79.5q32 -31 79.5 -46t115.5 -15q67 0 114 14.5t78 44.5v-27q0 -13 9.5 -22.5t22.5 -9.5t22.5 9.5t9.5 22.5v640 q0 13 -9.5 22.5t-22.5 9.5v0zM469 235q-21 -22 -57.5 -32.5t-91.5 -10.5t-91.5 10.5t-57.5 32.5q-22 21 -32.5 57.5t-10.5 91.5t10.5 91.5t32.5 57.5q21 22 57.5 32.5t91.5 10.5t91.5 -10.5t57.5 -32.5q22 -21 32.5 -57.5t10.5 -91.5t-10.5 -91.5t-32.5 -57.5v0z" />
<glyph unicode="e" d="M320 128q-79 0 -129 15t-79 48q-30 33 -39 81.5t-9 111.5q0 68 15 115.5t46 79.5q32 31 79.5 46t115.5 15q63 0 108.5 -13t76.5 -39q32 -28 49 -70t21 -100q0 -7 -2 -13t-7 -11q-4 -5 -10 -7.5t-13 -2.5h-415q0 -61 7.5 -96.5t24.5 -54.5q19 -21 57.5 -31t102.5 -10 q88 0 121 16t45 33q7 10 20.5 12.5t23.5 -5.5q11 -7 13.5 -20t-5.5 -24q-28 -40 -79.5 -58t-138.5 -18v0zM320 576q-55 0 -91.5 -10.5t-57.5 -32.5q-15 -14 -24.5 -35t-14.5 -50h375q-5 31 -15.5 53.5t-28.5 37.5q-21 19 -56.5 28t-86.5 9v0z" />
<glyph unicode="f" horiz-adv-x="384" d="M288 640h-159q1 41 7.5 65t18.5 36q14 15 45 21t88 6q13 0 22.5 9.5t9.5 22.5t-9.5 22.5t-22.5 9.5q-62 0 -106 -8.5t-73 -36.5q-28 -29 -36.5 -73t-8.5 -106v-448q0 -13 9.5 -22.5t22.5 -9.5t22.5 9.5t9.5 22.5v416h160q13 0 22.5 9.5t9.5 22.5t-9.5 22.5t-22.5 9.5v0z " />
<glyph unicode="g" d="M544 640q-13 0 -22.5 -9.5t-9.5 -22.5v-27q-31 30 -78 44.5t-114 14.5q-68 0 -115.5 -15t-79.5 -46q-31 -32 -46 -79.5t-15 -115.5t15 -115.5t46 -79.5q32 -31 79.5 -46t115.5 -15q67 0 114 14.5t78 44.5v-58q0 -24 -24 -76.5t-168 -52.5q-62 0 -104 13t-64 39 q-8 10 -21 11t-24 -7q-10 -9 -11 -22t8 -23q31 -37 85.5 -56t130.5 -19q63 0 111 13t81 38q32 25 48 60.5t16 81.5v479q0 13 -9.5 22.5t-22.5 9.5v0zM469 235q-21 -22 -57.5 -32.5t-91.5 -10.5t-91.5 10.5t-57.5 32.5q-22 21 -32.5 57.5t-10.5 91.5t10.5 91.5t32.5 57.5 q21 22 57.5 32.5t91.5 10.5t91.5 -10.5t57.5 -32.5q22 -21 32.5 -57.5t10.5 -91.5t-10.5 -91.5t-32.5 -57.5v0z" />
<glyph unicode="h" horiz-adv-x="576" d="M460 577q-28 32 -70.5 47.5t-101.5 15.5q-53 0 -93 -12.5t-67 -38.5v211q0 13 -9.5 22.5t-22.5 9.5t-22.5 -9.5t-9.5 -22.5v-640q0 -13 9.5 -22.5t22.5 -9.5t22.5 9.5t9.5 22.5v224q0 55 9 92t28 59q18 21 48 31t75 10t75 -10t48 -31q19 -22 28 -59t9 -92v-224 q0 -13 9.5 -22.5t22.5 -9.5t22.5 9.5t9.5 22.5v224q0 67 -13 114.5t-39 78.5v0z" />
<glyph unicode="i" horiz-adv-x="192" d="M96 128q-13 0 -22.5 9.5t-9.5 22.5v448q0 13 9.5 22.5t22.5 9.5t22.5 -9.5t9.5 -22.5v-448q0 -13 -9.5 -22.5t-22.5 -9.5v0zM96 704q-13 0 -22.5 9.5t-9.5 22.5v64q0 13 9.5 22.5t22.5 9.5t22.5 -9.5t9.5 -22.5v-64q0 -13 -9.5 -22.5t-22.5 -9.5v0z" />
<glyph unicode="j" horiz-adv-x="256" d="M-32 -63q-13 0 -22 8.5t-10 21.5t8 23t22 11q46 2 77 13t49 30q18 21 27 57t9 91v416q0 13 9.5 22.5t22.5 9.5t22.5 -9.5t9.5 -22.5v-416q0 -67 -13 -113.5t-40 -76.5q-26 -30 -67.5 -46t-101.5 -19h-1.5h-0.5v0zM160 704q-13 0 -22.5 9.5t-9.5 22.5v64q0 13 9.5 22.5 t22.5 9.5t22.5 -9.5t9.5 -22.5v-64q0 -13 -9.5 -22.5t-22.5 -9.5v0z" />
<glyph unicode="k" horiz-adv-x="448" d="M202 413l173 172q9 10 9 23t-9 23q-10 9 -23 9t-23 -9l-201 -202v371q0 13 -9.5 22.5t-22.5 9.5t-22.5 -9.5t-9.5 -22.5v-640q0 -13 9.5 -22.5t22.5 -9.5t22.5 9.5t9.5 22.5v245l198 -264q5 -6 12 -9.5t14 -3.5q5 0 10 1.5t9 4.5q11 8 13 21.5t-6 23.5l-176 234v0z" />
<glyph unicode="l" horiz-adv-x="192" d="M160 192v0q-2 0 -8 1t-11 4t-9 8.5t-4 18.5v576q0 13 -9.5 22.5t-22.5 9.5t-22.5 -9.5t-9.5 -22.5v-576q0 -53 33.5 -74.5t62.5 -21.5q13 0 22.5 9.5t9.5 22.5t-9.5 22.5t-22.5 9.5v0z" />
<glyph unicode="m" horiz-adv-x="960" d="M844 577q-28 32 -70.5 47.5t-101.5 15.5t-101.5 -15.5t-70.5 -47.5q-5 -7 -10.5 -14.5t-9.5 -15.5q-4 8 -9.5 15.5t-10.5 14.5q-28 32 -70.5 47.5t-101.5 15.5q-53 0 -93 -12.5t-67 -38.5v19q0 13 -9.5 22.5t-22.5 9.5t-22.5 -9.5t-9.5 -22.5v-448q0 -13 9.5 -22.5 t22.5 -9.5t22.5 9.5t9.5 22.5v224q0 55 9 92t28 59q18 21 48 31t75 10t75 -10t48 -31q19 -22 28 -59t9 -92v-224q0 -13 9.5 -22.5t22.5 -9.5t22.5 9.5t9.5 22.5v224q0 55 9 92t28 59q18 21 48 31t75 10t75 -10t48 -31q19 -22 28 -59t9 -92v-224q0 -13 9.5 -22.5t22.5 -9.5 t22.5 9.5t9.5 22.5v224q0 67 -13 114.5t-39 78.5v0z" />
<glyph unicode="n" horiz-adv-x="576" d="M460 577q-28 32 -70.5 47.5t-101.5 15.5q-53 0 -93 -12.5t-67 -38.5v19q0 13 -9.5 22.5t-22.5 9.5t-22.5 -9.5t-9.5 -22.5v-448q0 -13 9.5 -22.5t22.5 -9.5t22.5 9.5t9.5 22.5v224q0 55 9 92t28 59q18 21 48 31t75 10t75 -10t48 -31q19 -22 28 -59t9 -92v-224 q0 -13 9.5 -22.5t22.5 -9.5t22.5 9.5t9.5 22.5v224q0 67 -13 114.5t-39 78.5v0z" />
<glyph unicode="o" d="M320 128q-68 0 -115.5 15t-79.5 46q-31 32 -46 79.5t-15 115.5t15 115.5t46 79.5q32 31 79.5 46t115.5 15t115.5 -15t79.5 -46q31 -32 46 -79.5t15 -115.5t-15 -115.5t-46 -79.5q-32 -31 -79.5 -46t-115.5 -15v0zM320 576q-55 0 -91.5 -10.5t-57.5 -32.5 q-22 -21 -32.5 -57.5t-10.5 -91.5t10.5 -91.5t32.5 -57.5q21 -22 57.5 -32.5t91.5 -10.5t91.5 10.5t57.5 32.5q22 21 32.5 57.5t10.5 91.5t-10.5 91.5t-32.5 57.5q-21 22 -57.5 32.5t-91.5 10.5v0z" />
<glyph unicode="p" d="M515 579q-32 31 -79.5 46t-115.5 15q-67 0 -114 -14.5t-78 -44.5v27q0 13 -9.5 22.5t-22.5 9.5t-22.5 -9.5t-9.5 -22.5v-640q0 -13 9.5 -22.5t22.5 -9.5t22.5 9.5t9.5 22.5v219q31 -30 78 -44.5t114 -14.5q68 0 115.5 15t79.5 46q31 32 46 79.5t15 115.5t-15 115.5 t-46 79.5v0zM469 235q-21 -22 -57.5 -32.5t-91.5 -10.5t-91.5 10.5t-57.5 32.5q-22 21 -32.5 57.5t-10.5 91.5t10.5 91.5t32.5 57.5q21 22 57.5 32.5t91.5 10.5t91.5 -10.5t57.5 -32.5q22 -21 32.5 -57.5t10.5 -91.5t-10.5 -91.5t-32.5 -57.5v0z" />
<glyph unicode="q" d="M544 640q-13 0 -22.5 -9.5t-9.5 -22.5v-27q-31 30 -78 44.5t-114 14.5q-68 0 -115.5 -15t-79.5 -46q-31 -32 -46 -79.5t-15 -115.5t15 -115.5t46 -79.5q32 -31 79.5 -46t115.5 -15q67 0 114 14.5t78 44.5v-219q0 -13 9.5 -22.5t22.5 -9.5t22.5 9.5t9.5 22.5v640 q0 13 -9.5 22.5t-22.5 9.5v0zM469 235q-21 -22 -57.5 -32.5t-91.5 -10.5t-91.5 10.5t-57.5 32.5q-22 21 -32.5 57.5t-10.5 91.5t10.5 91.5t32.5 57.5q21 22 57.5 32.5t91.5 10.5t91.5 -10.5t57.5 -32.5q22 -21 32.5 -57.5t10.5 -91.5t-10.5 -91.5t-32.5 -57.5v0z" />
<glyph unicode="r" horiz-adv-x="384" d="M288 640q-53 0 -93 -12.5t-67 -38.5v19q0 13 -9.5 22.5t-22.5 9.5t-22.5 -9.5t-9.5 -22.5v-448q0 -13 9.5 -22.5t22.5 -9.5t22.5 9.5t9.5 22.5v224q0 55 9 92t28 59q18 21 48 31t75 10q13 0 22.5 9.5t9.5 22.5t-9.5 22.5t-22.5 9.5v0z" />
<glyph unicode="s" horiz-adv-x="512" d="M256 128q-56 0 -106 23.5t-77 49.5q-9 10 -9 23t9 23q10 9 23 9t23 -9q20 -21 58 -38t79 -17q36 0 63.5 7.5t42.5 22.5q14 12 18 26t4 24q0 33 -36 49t-100 32q-31 8 -61.5 17t-55.5 22q-34 19 -50.5 45t-16.5 59q0 52 43 98t149 46q57 0 106.5 -23.5t72.5 -52.5 q9 -10 7.5 -23t-11.5 -22q-10 -8 -23.5 -7t-21.5 12q-16 18 -53 35t-77 17q-36 0 -63.5 -7.5t-42.5 -22.5q-14 -12 -18 -26t-4 -24q0 -33 36 -49t100 -32q31 -8 61.5 -17t55.5 -22q34 -19 50.5 -45t16.5 -59q0 -52 -43 -98t-149 -46v0z" />
<glyph unicode="t" horiz-adv-x="384" d="M288 192q-57 0 -88 6t-45 21q-15 14 -21 45t-6 88v224h160q13 0 22.5 9.5t9.5 22.5t-9.5 22.5t-22.5 9.5h-160v160q0 13 -9.5 22.5t-22.5 9.5t-22.5 -9.5t-9.5 -22.5v-448q0 -62 8.5 -106t36.5 -73q29 -28 73 -36.5t106 -8.5q13 0 22.5 9.5t9.5 22.5t-9.5 22.5t-22.5 9.5 v0z" />
<glyph unicode="u" horiz-adv-x="576" d="M480 640q-13 0 -22.5 -9.5t-9.5 -22.5v-224q0 -55 -9 -92t-28 -59q-18 -21 -48 -31t-75 -10t-75 10t-48 31q-19 22 -28 59t-9 92v224q0 13 -9.5 22.5t-22.5 9.5t-22.5 -9.5t-9.5 -22.5v-224q0 -67 13 -114.5t39 -78.5q28 -32 70.5 -47.5t101.5 -15.5q53 0 93 12.5 t67 38.5v-19q0 -13 9.5 -22.5t22.5 -9.5t22.5 9.5t9.5 22.5v448q0 13 -9.5 22.5t-22.5 9.5v0z" />
<glyph unicode="v" horiz-adv-x="576" d="M288 128q-10 0 -18 5.5t-11 13.5l-192 448q-6 13 -1 25t17 17q13 6 25 1t17 -17l163 -380l163 380q5 12 17 17t25 -1q12 -5 17 -17t-1 -25l-192 -448q-3 -8 -11 -13.5t-18 -5.5v0z" />
<glyph unicode="w" horiz-adv-x="960" d="M877 637q-13 6 -25 1t-17 -17l-163 -380l-163 380q-2 5 -6 9.5t-10 6.5q-13 6 -25 1t-17 -17l-163 -380l-163 380q-5 12 -17 17t-25 -1q-12 -5 -17 -17t1 -25l192 -448q3 -8 11 -13.5t18 -5.5t18 5.5t11 13.5l163 380l163 -380q3 -8 11 -13.5t18 -5.5t18 5.5t11 13.5 l192 448q6 13 1 25t-17 17v0z" />
<glyph unicode="x" horiz-adv-x="576" d="M330 384l174 203q9 10 8 23.5t-11 21.5q-10 9 -23.5 8t-21.5 -11l-168 -196l-168 196q-8 10 -21.5 11t-23.5 -8q-10 -8 -11 -21.5t8 -23.5l174 -203l-174 -203q-9 -10 -8 -23.5t11 -21.5q5 -4 10 -6t11 -2q7 0 13.5 3t10.5 8l168 196l168 -196q4 -5 10.5 -8t13.5 -3 q6 0 11 2t10 6q10 8 11 21.5t-8 23.5l-174 203v0z" />
<glyph unicode="y" horiz-adv-x="576" d="M493 637q-13 6 -25 1t-17 -17l-163 -380l-163 380q-5 12 -17 17t-25 -1q-12 -5 -17 -17t1 -25l186 -435q-48 -110 -75.5 -135t-81.5 -25q-13 0 -22.5 -9.5t-9.5 -22.5t9.5 -22.5t22.5 -9.5q33 0 66.5 8t62.5 38q24 24 45 63.5t47 101.5l192 448q6 13 1 25t-17 17v0z" />
<glyph unicode="z" horiz-adv-x="576" d="M480 128h-384q-9 0 -17 5t-12 14q-4 8 -2.5 17.5t7.5 16.5l338 395h-314q-13 0 -22.5 9.5t-9.5 22.5t9.5 22.5t22.5 9.5h384q9 0 17 -5t12 -14q4 -8 2.5 -17.5t-7.5 -16.5l-338 -395h314q13 0 22.5 -9.5t9.5 -22.5t-9.5 -22.5t-22.5 -9.5v0z" />
<glyph unicode="{" horiz-adv-x="448" d="M352 0h-32q-26 0 -45 19t-19 45v320q0 29 -12 53.5t-31 42.5q19 18 31 42.5t12 53.5v256q0 26 19 45t45 19h32q13 0 22.5 9.5t9.5 22.5t-9.5 22.5t-22.5 9.5h-32q-53 0 -90.5 -37.5t-37.5 -90.5v-256q0 -26 -19 -45t-45 -19h-32q-13 0 -22.5 -9.5t-9.5 -22.5t9.5 -22.5 t22.5 -9.5h32q26 0 45 -19t19 -45v-320q0 -53 37.5 -90.5t90.5 -37.5h32q13 0 22.5 9.5t9.5 22.5t-9.5 22.5t-22.5 9.5v0z" />
<glyph unicode="|" horiz-adv-x="192" d="M96 -64q-13 0 -22.5 9.5t-9.5 22.5v960q0 13 9.5 22.5t22.5 9.5t22.5 -9.5t9.5 -22.5v-960q0 -13 -9.5 -22.5t-22.5 -9.5v0z" />
<glyph unicode="}" horiz-adv-x="448" d="M96 0h32q26 0 45 19t19 45v320q0 29 12 53.5t31 42.5q-19 18 -31 42.5t-12 53.5v256q0 26 -19 45t-45 19h-32q-13 0 -22.5 9.5t-9.5 22.5t9.5 22.5t22.5 9.5h32q53 0 90.5 -37.5t37.5 -90.5v-256q0 -26 19 -45t45 -19h32q13 0 22.5 -9.5t9.5 -22.5t-9.5 -22.5t-22.5 -9.5 h-32q-26 0 -45 -19t-19 -45v-320q0 -53 -37.5 -90.5t-90.5 -37.5h-32q-13 0 -22.5 9.5t-9.5 22.5t9.5 22.5t22.5 9.5v0z" />
<glyph unicode="~" d="M96 320q-3 0 -5.5 0.5t-5.5 1.5q-12 4 -18 16t-1 25q21 59 47.5 92t59.5 43q44 14 86 -8t79 -48q30 -21 59 -37.5t51 -9.5q17 5 34 29.5t32 66.5q4 12 16 18t25 1q12 -4 18 -16t1 -25q-21 -59 -47.5 -92t-59.5 -43q-8 -3 -15.5 -4t-15.5 -1q-36 0 -69.5 19.5t-64.5 41.5 q-30 21 -59 37.5t-51 9.5q-17 -5 -34 -29.5t-32 -66.5q-3 -10 -11.5 -15.5t-18.5 -5.5v0z" />
<glyph unicode="&#xa0;" horiz-adv-x="512" d="M0 0v0v0v0z" />
<glyph unicode="&#xa9;" horiz-adv-x="832" d="M416 320q-44 0 -73.5 9t-49.5 28q-19 20 -28 49.5t-9 73.5t9 73.5t28 49.5q20 19 49.5 28t73.5 9t89 -14.5t62 -72.5q4 -12 -2.5 -24t-18.5 -16q-13 -3 -24.5 3t-15.5 19q-5 17 -20.5 29t-69.5 12q-30 0 -49 -4.5t-28 -14.5q-10 -9 -14.5 -28t-4.5 -49t4.5 -49t14.5 -28 q9 -10 28 -14.5t49 -4.5q54 0 69.5 12t20.5 29q4 13 15.5 19t24.5 3q12 -4 18.5 -16t2.5 -24q-17 -58 -62 -72.5t-89 -14.5v0zM416 128q-91 0 -157.5 21t-109.5 64t-64 109.5t-21 157.5t21 157.5t64 109.5t109.5 64t157.5 21t157.5 -21t109.5 -64t64 -109.5t21 -157.5 t-21 -157.5t-64 -109.5t-109.5 -64t-157.5 -21v0zM416 768q-78 0 -133 -16.5t-88 -50.5q-34 -33 -50.5 -88t-16.5 -133t16.5 -133t50.5 -88q33 -34 88 -50.5t133 -16.5t133 16.5t88 50.5q34 33 50.5 88t16.5 133t-16.5 133t-50.5 88q-33 34 -88 50.5t-133 16.5v0z" />
<glyph unicode="&#xad;" horiz-adv-x="448" d="M352 448h-256q-13 0 -22.5 -9.5t-9.5 -22.5t9.5 -22.5t22.5 -9.5h256q13 0 22.5 9.5t9.5 22.5t-9.5 22.5t-22.5 9.5v0z" />
<glyph unicode="&#x2000;" horiz-adv-x="480" />
<glyph unicode="&#x2001;" horiz-adv-x="960" />
<glyph unicode="&#x2002;" horiz-adv-x="480" />
<glyph unicode="&#x2003;" horiz-adv-x="960" />
<glyph unicode="&#x2004;" horiz-adv-x="320" />
<glyph unicode="&#x2005;" horiz-adv-x="240" />
<glyph unicode="&#x2006;" horiz-adv-x="160" />
<glyph unicode="&#x2007;" horiz-adv-x="160" />
<glyph unicode="&#x2008;" horiz-adv-x="120" />
<glyph unicode="&#x2009;" horiz-adv-x="192" />
<glyph unicode="&#x200a;" horiz-adv-x="53" />
<glyph unicode="&#x2010;" horiz-adv-x="448" d="M352 448h-256q-13 0 -22.5 -9.5t-9.5 -22.5t9.5 -22.5t22.5 -9.5h256q13 0 22.5 9.5t9.5 22.5t-9.5 22.5t-22.5 9.5v0z" />
<glyph unicode="&#x2011;" horiz-adv-x="448" d="M352 448h-256q-13 0 -22.5 -9.5t-9.5 -22.5t9.5 -22.5t22.5 -9.5h256q13 0 22.5 9.5t9.5 22.5t-9.5 22.5t-22.5 9.5v0z" />
<glyph unicode="&#x2012;" horiz-adv-x="448" d="M352 448h-256q-13 0 -22.5 -9.5t-9.5 -22.5t9.5 -22.5t22.5 -9.5h256q13 0 22.5 9.5t9.5 22.5t-9.5 22.5t-22.5 9.5v0z" />
<glyph unicode="&#x2013;" d="M525 448h-410q-21 0 -36 -9.5t-15 -22.5t15 -22.5t36 -9.5h410q21 0 36 9.5t15 22.5t-15 22.5t-36 9.5v0z" />
<glyph unicode="&#x2014;" horiz-adv-x="1152" d="M986 448h-820q-41 0 -71.5 -9.5t-30.5 -22.5t30.5 -22.5t71.5 -9.5h820q41 0 71.5 9.5t30.5 22.5t-30.5 22.5t-71.5 9.5v0z" />
<glyph unicode="&#x202f;" horiz-adv-x="192" />
<glyph unicode="&#x205f;" horiz-adv-x="240" />
<glyph unicode="&#x25fc;" d="M0 640h640v-640h-640v640z" />
</font>
</defs>
</svg>
