<?xml version="1.0" encoding="UTF-8" standalone="no"?>
<svg
   xmlns:dc="http://purl.org/dc/elements/1.1/"
   xmlns:cc="http://creativecommons.org/ns#"
   xmlns:rdf="http://www.w3.org/1999/02/22-rdf-syntax-ns#"
   xmlns:svg="http://www.w3.org/2000/svg"
   xmlns="http://www.w3.org/2000/svg"
   xmlns:sodipodi="http://sodipodi.sourceforge.net/DTD/sodipodi-0.dtd"
   xmlns:inkscape="http://www.inkscape.org/namespaces/inkscape"
   width="40"
   height="40"
   viewBox="0 0 40 40"
   id="svg2"
   version="1.1"
   inkscape:version="0.91 r13725"
   sodipodi:docname="Ic_settings_40px.svg">
  <metadata
     id="metadata12">
    <rdf:RDF>
      <cc:Work
         rdf:about="">
        <dc:format>image/svg+xml</dc:format>
        <dc:type
           rdf:resource="http://purl.org/dc/dcmitype/StillImage" />
        <dc:title></dc:title>
      </cc:Work>
    </rdf:RDF>
  </metadata>
  <defs
     id="defs10" />
  <sodipodi:namedview
     pagecolor="#ffffff"
     bordercolor="#666666"
     borderopacity="1"
     objecttolerance="10"
     gridtolerance="10"
     guidetolerance="10"
     inkscape:pageopacity="0"
     inkscape:pageshadow="2"
     inkscape:window-width="751"
     inkscape:window-height="480"
     id="namedview8"
     showgrid="false"
     fit-margin-top="0"
     fit-margin-left="0"
     fit-margin-right="0"
     fit-margin-bottom="0"
     inkscape:zoom="4.9166667"
     inkscape:cx="15.183059"
     inkscape:cy="20"
     inkscape:window-x="520"
     inkscape:window-y="252"
     inkscape:window-maximized="0"
     inkscape:current-layer="svg2" />
  <path
     d="m -4.5457551,-4 48.0000001,0 0,48 -48.0000001,0 z"
     id="path4"
     inkscape:connector-curvature="0"
     style="fill:none" />
  <path
     d="m 34.924415,21.95 c 0.08,-0.64 0.14,-1.29 0.14,-1.95 0,-0.66 -0.06,-1.31 -0.14,-1.95 l 4.23,-3.31 c 0.38,-0.3 0.49,-0.84 0.24,-1.28 l -4,-6.93 c -0.25,-0.43 -0.77,-0.61 -1.22,-0.43 l -4.98,2.01 c -1.03,-0.79 -2.16,-1.46 -3.38,-1.97 l -0.75,-5.30000003 C 24.974415,0.37 24.564415,0 24.064415,0 l -8,0 c -0.5,0 -0.91,0.37 -0.99,0.83999997 L 14.324415,6.14 c -1.22,0.51 -2.35,1.17 -3.38,1.97 L 5.9644143,6.1 c -0.45,-0.17 -0.97,0 -1.22,0.43 l -3.99999991,6.93 c -0.25,0.43 -0.14,0.97 0.23999998,1.28 l 4.21999993,3.31 c -0.08,0.64 -0.14,1.29 -0.14,1.95 0,0.66 0.06,1.31 0.14,1.95 l -4.21999993,3.31 c -0.37999998,0.3 -0.48999998,0.84 -0.23999998,1.28 l 3.99999991,6.93 c 0.25,0.43 0.77,0.61 1.22,0.43 l 4.9800007,-2.01 c 1.03,0.79 2.16,1.46 3.38,1.97 l 0.75,5.3 c 0.08,0.47 0.49,0.84 0.99,0.84 l 8,0 c 0.5,0 0.91,-0.37 0.99,-0.84 l 0.75,-5.3 c 1.22,-0.51 2.35,-1.17 3.38,-1.97 l 4.98,2.01 c 0.45,0.17 0.97,0 1.22,-0.43 l 4,-6.93 c 0.25,-0.43 0.14,-0.97 -0.24,-1.28 l -4.22,-3.31 z m -14.86,5.05 c -3.87,0 -7,-3.13 -7,-7 0,-3.87 3.13,-7 7,-7 3.87,0 7,3.13 7,7 0,3.87 -3.13,7 -7,7 z"
     id="path6"
     inkscape:connector-curvature="0" />
</svg>
